<svg xmlns="http://www.w3.org/2000/svg" width="556" height="510" viewBox="0 0 5560 5100">
  <path d="M2644 5066c-41-13-175-81-331-169-200-112-539-364-741-549-267-245-607-651-727-868-139-252-297-653-374-950-133-511-183-941-184-1570-1-431 21-660 63-660 5 0 57 24 117 53 186 90 266 122 423 172 411 129 829 148 1210 55 266-65 421-128 608-247 29-18 55-33 58-33s63 28 132 63c135 66 151 73 266 117 81 31 291 91 406 115 168 36 399 47 585 30 195-19 564-105 735-172 201-78 250-99 299-125 29-16 59-27 66-24 18 7 28 301 16 486-6 85-13 225-16 310-6 141-16 262-45 526-41 383-117 790-195 1047-99 328-134 417-270 687-182 361-320 556-579 816-160 160-316 299-416 371l-135 96c-69 50-349 217-363 217-5 0-20 8-33 19-13 10-35 22-49 26s-67 27-118 51-96 44-100 44-20 7-36 15c-38 20-187 65-212 64-10 0-37-6-60-13zm-872-3131c0-5-5-11-11-13s-11 4-11 13 5 15 11 13 11-8 11-13z"
        fill="#080808"/>
  <g fill="#f8f8f9">
    <path d="M2665 5009c-98-22-423-217-695-417-369-272-872-795-1047-1090-56-93-180-347-223-457-139-349-260-823-309-1215-56-448-70-940-36-1331 8-100 13-119 29-119 7 0 79 32 159 70l146 71-6 227c-6 260 10 782 32 1000 28 279 110 660 199 919 111 322 308 691 531 993 140 190 528 559 803 763 158 117 407 267 444 267 25 0 289-114 405-175 191-101 394-236 564-375 121-100 382-367 461-473 126-170 320-527 406-750l77-197c59-151 120-398 164-661 38-231 83-535 95-644l26-215c25-207 40-421 40-572 0-93 3-120 16-132 8-9 20-16 25-16s57-20 116-45c58-25 112-44 120-41 29 12 7 672-38 1131-59 609-164 1077-342 1530-233 593-645 1110-1198 1506-53 38-100 69-103 69-4 0-53 30-108 66-119 79-335 193-433 229-39 14-79 30-90 35-77 37-183 60-230 49zm99-88c13-13 21-38 24-75 4-48 2-57-21-80-26-26-74-34-112-20-24 10-45 58-45 104 0 33 6 48 30 72 27 26 36 30 67 25 20-4 46-15 57-26zm191-22c79-29 70-53-12-30-31 9-32 9-49-37-42-114-48-124-66-106-6 5 43 161 57 184 8 13 5 13 70-11zm-407-108c23-43 42-83 42-90 0-25-22-8-51 40-17 27-34 47-37 44s-8-38-11-78c-5-54-10-72-21-72-18 0-104 151-96 171 9 22 23 9 51-47 14-27 30-49 35-49 6 0 10 34 10 80 0 70 2 80 18 80 12 0 31-25 60-79zm604 18c11-6 26-26 34-45 13-32 13-39-5-80-33-73-103-91-158-41-41 37-27 122 27 164 19 15 75 17 102 2zm-785-136c30-43 43-69 38-81-6-15-10-13-34 14l-29 32-31-20c-36-23-37-26-15-56 16-23 12-58-4-48-5 3-33 40-62 82-40 57-50 78-41 87s18 4 37-21c29-37 40-39 73-13l24 18-22 37c-24 38-20 66 6 45 8-7 35-41 60-76zm1003 7c15-16 33-30 39-30 19 0 12-25-17-59-28-34-28-34-55-16-34 22-35 37-1 33 35-4 40 12 14 45-27 34-40 34-79 1-55-46-31-134 32-119 28 8 47-12 26-26-24-16-82-1-106 26-27 30-29 74-8 115 34 67 108 81 155 30zm-1226-66c9-3 16-13 16-21 0-11-7-14-27-10-42 8-63-8-63-47 0-41 39-86 73-86 28 0 42 14 51 53 7 32 22 35 31 7 9-29-20-76-56-89-62-22-139 41-139 115 0 58 60 99 114 78zm1396-49c0-2-9-21-19-42-11-21-23-64-26-95-5-35-12-58-19-58-21 0-24 10-14 52 5 22 6 43 3 46s-23-5-45-17c-37-21-60-21-60-1 0 4 24 22 54 39s63 42 73 55c15 21 53 36 53 21zm-1580-67c0-7-16-28-35-48-35-36-35-37-16-54 20-18 21-18 51 8 18 14 36 26 41 26 20 0 7-30-22-53-27-21-30-27-20-46l12-22 39 31c38 30 60 38 60 21 0-11-89-91-101-91-15 0-131 152-122 161 22 21 99 79 106 79 4 0 7-5 7-12zm1810-98c0-4-9-15-20-25s-20-27-20-38c0-17 4-18 38-11 101 21 125-4 30-33l-63-18-3-54c-3-44-5-51-18-41-9 8-14 32-14 66 0 30-2 54-5 54-2 0-15-11-29-25-28-27-46-32-46-12 0 24 119 157 135 151 8-4 15-9 15-14zm-1928-138c27-31 30-31 52-17 18 12 26 13 31 4 12-19-106-112-122-96-3 4 1 15 10 25 10 10 17 22 17 26s-21 34-46 66c-33 42-44 65-39 77 6 16 10 13 37-17l60-68zm2068-6c0-42 29-66 78-66 50 0 36-18-56-74-116-69-135-55-86 65 15 35 30 74 35 87 13 33 29 27 29-12zm174-133c3-4-7-21-24-38l-30-31 25-24c25-23 25-23 59-5 20 11 38 16 42 12 13-12-6-37-40-54-20-9-37-26-40-39-8-29-49-41-79-24-12 7-35 28-52 48l-30 35 70 64c67 61 84 71 99 56zm-2583-59l28-27 32 27c22 19 35 24 42 17 8-8 2-20-18-41-27-28-28-32-13-47 15-14 19-13 54 16 26 20 42 27 48 21 7-7-5-26-37-58l-47-47-71 71c-41 41-69 77-65 83 10 16 17 14 47-15zm-44-91c68-32 90-107 45-156-31-35-60-40-109-16-87 42-97 134-18 177 28 16 41 15 82-5zm2763-5c0-7-19-31-42-55-23-23-40-44-37-47 2-2 37 3 77 12 58 12 75 13 85 3 9-10-2-26-58-77-38-35-76-64-82-64-24 0-13 24 29 67 47 48 43 50-45 27-51-13-62-13-74-2-11 12-3 24 56 81 67 65 91 80 91 55zm150-187c0-11-5-23-10-26-12-7 18-64 35-66 5-1 19-2 30-3 11 0 20-7 20-15 0-9-30-22-80-37-149-44-162-30-79 86 57 79 84 99 84 61zm-3160-39c0-4-11-24-25-44-30-44-31-50-5-65 17-11 22-8 46 22 14 19 33 35 40 35 19 0 18-7-7-47-38-62-1-88 40-28 13 19 30 35 37 35 21 0 18-10-21-68-33-48-38-51-58-41-34 18-135 88-141 97-8 13 62 112 79 112 8 0 15-3 15-8zm3286-181c-4-6-28-23-54-38-73-41-83-52-71-75 18-34-6-43-28-11-26 36-53 89-53 103 0 17 21 12 38-10 17-20 18-20 87 19 63 36 98 41 81 12zm-3376-51c32-22 62-40 66-40s16 7 26 17c27 24 35 7 15-30-30-56-63-91-76-82-9 5-10 10-2 18 23 23 10 47-49 87-33 22-60 47-60 55 0 23 17 18 80-25zm3432-65c-16-36 8-85 42-85 13 0 26-6 29-14 7-17-25-24-135-33-68-5-78-4-84 11-9 22 135 171 150 156 6-6 5-19-2-35zm-3481-76c56-30 77-59 44-59-9 0-43 14-77 31l-61 31-20-20c-28-29-17-46 57-89 37-20 66-41 66-45 0-24-38-16-100 21-66 40-70 44-70 78 0 47 32 83 73 83 16 0 56-14 88-31zm3589-103c0-8-12-21-27-28-33-16-44-48-16-48 36 0 91-21 97-36 5-14-3-15-67-9l-74 7-20-48c-17-41-22-46-28-30-5 11-2 37 8 64 10 25 15 47 12 50s-17 0-31-7c-26-12-44-8-44 10 0 11 156 88 178 89 6 0 12-7 12-14zM923 3148l69-32 20 24c12 14 22 20 28 14 14-14-45-134-66-134-10 0-14 5-10 15 3 8 9 21 12 29 4 11-13 24-58 47-74 37-90 48-82 60 8 13 10 12 87-23zm3817-78c0-6-5-18-11-28-17-27 1-75 32-82 13-3 25-14 27-23 3-15-8-17-101-17-145 0-148 14-27 114 54 45 80 56 80 36zm-3847-56c37-19 67-41 67-49 0-22-12-19-100 25-49 24-80 46-80 56 0 19 21 13 113-32zm-77-120c64-24 69-24 81-8 7 9 14 22 16 28 3 8 8 8 16 1 8-8 4-29-15-78-28-72-53-89-50-35 1 30-3 33-59 57-75 32-87 40-80 52 9 13 15 12 91-17zm4031-28c-6-17-55-25-61-11-2 7-2 16 1 19 9 9 63 2 60-8zm-4096-86c15-9 19-22 19-70 0-32 5-62 10-65 20-13 41 17 38 53-4 43 18 54 32 17 16-43-15-99-57-103-43-4-66 29-58 84 7 45-6 70-29 61s-35-48-23-75c12-25 5-37-18-29-23 9-20 78 6 111 22 28 48 33 80 16zm53-240c19-19-4-23-64-10-33 7-63 11-65 8-3-2 20-28 50-57 84-81 73-93-56-60-60 15-89 27-89 37s8 13 28 9c15-3 45-8 67-12l40-8-52 55c-49 49-62 75-47 90 7 8 175-39 188-52zm4135-6c39-49 23-112-31-130-22-7-35 4-84 71-23 32-44 27-44-10 0-15 10-31 25-41 32-21 32-34 1-34-32 0-56 35-56 82 0 27 6 40 19 48 37 19 60 11 89-30 28-40 47-54 63-44 17 10 9 45-16 68-14 13-25 28-25 35 0 21 38 11 59-15zM654 2369c88-23 106-33 90-49-6-6-40-2-98 14-96 27-101 29-91 45 8 14 6 14 99-10zm4340-51c21-30 20-84-2-106-23-23-159-49-175-33s-6 21 69 37c76 16 99 32 90 62-9 27-32 34-81 22-52-12-105-13-105-1 0 21 59 38 142 40 38 1 50-3 62-21zM543 2171l-6-49 82-17c64-14 81-22 79-34-4-18-5-18-117 5l-83 17 6 49c9 62 15 78 32 78 10 0 12-12 7-49zm4492-51c0-10-13-17-35-20-27-4-36-10-38-28-5-33 15-52 54-52 23 0 34-5 34-14 0-19-34-30-66-22-15 4-34 0-49-10-53-35-84-4-98 98-5 36-4 38 26 43 144 27 172 28 172 5zM613 1973c46-28 57-40 55-57-3-18-13-22-83-33-108-16-138-16-133 0 3 6 15 17 29 24 33 17 41 62 16 90-10 12-16 26-12 32 7 12 34 0 128-56zm4439-86c-12-13-22-33-22-44 0-22 24-53 41-53 5 0 9-7 9-15 0-20-35-19-130 3-64 15-75 21-78 40-3 20 9 28 90 66 96 45 130 46 90 3zm-4454-93c34-5 52-11 52-20 0-11-17-14-67-14h-68l63-41c39-27 62-48 62-60 0-17-9-19-81-19-79 0-119 10-119 31 0 7 24 8 70 3 39-4 70-3 69 2 0 5-28 27-62 49s-63 48-65 58c-3 14 4 17 45 17 26 0 72-3 101-6zm4322-98c0-14 3-27 8-29 4-3 41-2 82 2s76 4 78 0c2-5 4-12 5-16 1-5-34-12-78-18l-80-10-3-33c-4-45-25-36-34 14-12 69-10 114 7 114 9 0 15-9 15-24zM611 1561c39-40 39-82 0-122-23-23-38-29-71-29-72 0-109 31-110 93 0 57 34 87 100 87 44 0 56-5 81-29zm4503-52c-2-4-22-10-45-14-39-7-40-8-37-43 3-37 3-37 51-37 37 0 47-4 47-16 0-18-20-23-132-35-58-5-68-4-68 9 0 10 13 18 36 23 33 6 35 8 32 43-3 33-6 36-38 39-37 4-58 17-46 29s190 29 198 19c4-6 5-13 2-17zM588 1354c19-3 32-11 32-20 0-12-15-13-87-8-105 7-113 9-113 29 0 13 11 15 68 10 37-3 82-8 100-11zm4552-69c0-9-9-15-23-15-23 0-67-25-57-32 3-2 24-16 48-31 26-17 42-35 42-47 0-23-7-21-84 27l-38 25-39-38c-38-37-39-38-39-13 0 15 12 37 30 54 39 37 38 45-5 45-24 0-35 5-35 14 0 17 30 22 133 24 54 2 67-1 67-13zm-4525-27c8-31-8-133-20-133-5 0-12 14-15 30-5 30-6 30-84 35-51 3-81 10-84 18-3 9 18 12 81 12h85l7 30c8 35 22 39 30 8zm-99-170c81-27 94-35 94-54s-13-27-93-53c-50-17-95-31-100-31-15 0-6 30 13 40 13 7 20 21 20 39 0 15-9 36-20 46-19 17-27 45-14 45 3 0 48-14 100-32zm4644-8c0-10-9-24-20-30-30-16-27-65 5-86 26-17 34-44 13-44-13 0-52 10-146 36-49 14-53 17-50 41 3 23 15 32 93 64 107 45 105 44 105 19zM605 889c11-16 2-19-66-27l-64-7 68-39c46-26 67-44 67-57 0-17-8-19-100-19-82 0-100 3-100 15s14 15 65 15c36 0 65 4 65 8s-29 24-65 43c-83 44-87 66-12 72 109 7 136 7 142-4zm4563-101c2-54 0-68-11-68-10 0-17 16-21 45l-7 44-82 3c-68 3-82 6-85 20s7 18 65 21c37 2 84 3 103 3l35-1 3-67zM2666 4897c-13-10-17-24-14-57 2-36 8-47 30-59 24-14 28-14 47 3 27 25 28 86 3 109-22 20-42 21-66 4zm411-118c-11-6-25-27-33-46-13-31-13-38 1-59 21-32 58-31 84 2 33 42 35 63 10 90-25 26-35 29-62"/>
    <path d="M3982 4008c-9-9-7-17 10-35 12-13 27-23 34-23 19 0 24 26 8 49-17 24-34 27-52 9zm-2604-69c-36-20-17-79 33-105 28-14 33-14 55 1 34 22 31 57-7 89-33 28-53 32-81 15zm2929-257c-24-27-21-32 12-21 20 7 28 15 24 25-7 19-17 18-36-4zm180-303c-25-14-21-29 8-29 15 0 25 6 25 14 0 21-12 26-33 15zm175-395c-29-20-28-32 3-26 16 3 25 11 25 23 0 23 0 23-28 3zm214-913c-7-11 8-56 21-64 17-11 35 11 31 39-2 21-9 30-25 32-11 2-24-1-27-7zM550 1940c0-15 7-20 25-20 14 0 25 4 25 8 0 5-11 14-25 20-22 10-25 9-25-8zm4405-104c-18-13-18-14 4-21 25-8 47 7 37 24-9 14-18 14-41-3zM510 1552c-23-7-50-34-50-49 0-41 75-67 121-43 21 12 27 64 9 75-20 12-65 22-80 17zm-28-519c4-17 23-19 58-6 12 4 11 7-5 13-35 15-57 12-53-7zm4553-23c-18-7-18-9 9-19 23-9 31-9 37 1 16 25-7 34-46 18zM2680 4651c0-5 16-12 35-15 58-11 40-23-22-15-42 6-64 4-84-7-59-30-46-36 67-31l109 6-80-15c-44-8-101-12-127-9-39 5-51 2-75-19l-28-24 36-7c20-4 62-2 94 4 95 18 117 11 30-9-64-15-89-17-131-8l-52 10-73-50c-116-80-127-90-109-102 8-5 51-10 95-11s69-4 55-6c-48-8-56-13-40-23 12-7 9-10-12-10-53 0-40-20 14-21 29-1 45-3 36-6-25-6-22-19 5-27l22-6-22-18c-19-14-21-24-16-59l6-43h107c59 0 182 3 273 7l167 6v97h-40c-22 0-40 5-40 10 0 6 16 10 35 10 44 0 45 16 3 29-32 9-31 9 16 10 45 1 48 2 31 15-17 12-10 15 67 21 47 4 92 3 100-1 7-5 40-12 73-15l60-6-66-1c-58-2-67-5-72-22-4-17 0-20 29-20 19 0 34-4 34-10 0-5-9-10-19-10-11 0-22-4-25-9-10-15 46-22 84-11 19 5 51 9 70 9 34-1 34-2-10-10-25-5-69-12-97-15-50-6-53-8-53-35v-29h133c74 0 169 3 212 7 68 5 76 8 60 20-13 9-58 14-144 15l-126 2 108 3c59 2 107 7 107 12 0 16-85 65-109 62-18-2-22 1-18 13 10 25-58 66-113 67-37 1-40 2-16 8 27 6 27 7 10 22-28 24-60 39-83 39-12 0-21 7-21 15 0 19-37 38-63 32-12-2-33-1-47 3-23 7-22 8 10 9 34 2 34 2 15 17-31 24-161 88-261 128-95 37-114 42-114 27zm215-141c8-12-71-12-100 0-14 6-4 9 37 9 31 1 60-3 63-9zm-30-38c-13-11-203-47-211-40-7 7 149 45 191 47 16 1 25-3 20-7zm-310-22c-27-5-79-8-115-8-54 1-59 2-30 8 19 4 71 7 115 7 74 0 76 0 30-7zm360-31c-38-5-92-11-120-13l-50-6 45 14c25 7 79 13 120 13h75l-70-8zm-325-19c11-7-1-10-40-10-30 0-93-2-140-5l-85-5 65 14c79 16 180 19 200 6zm505-24l50-13-115-8c-74-4-131-3-160 4-39 9-32 10 48 5 78-5 93-3 98 10 7 19 15 19 79 2zm-355-25c-8-5-49-11-90-15-41-3-88-9-105-12-23-5-27-4-19 5 11 12 110 27 189 29 26 1 35-1 25-7zm78-38c-10-2-28-2-40 0-13 2-5 4 17 4 22 1 32-1 23-4zm-93-13c14-6 2-8-40-8-33 0-73-5-88-11-16-6-52-10-80-10l-52 1 50 10c28 5 64 13 80 17 39 12 105 12 130 1zm30-75c-5-2-75-5-155-8-80-2-134-1-120 3 24 8 296 12 275 5zm94-29c-2-2-60-6-129-9-70-3-103-2-75 2 53 8 211 14 204 7zm-654 122c-53-27-155-110-149-120 3-4 20-9 37-9 22-1 15-4-22-9-37-6-61-16-80-34l-26-26h106c59 0 121 3 139 6l32 7-4 55c-3 31-10 58-16 60-22 7-12 22 14 22 21 0 24 3 15 13-13 17-5 27 23 27 20 0 20 0 0 15-24 18-21 18-69-7zm-15-108c-14-4-36-8-50-8-23-1-23 0-5 8 11 5 34 8 50 8 29 0 29 0 5-8zm853-12c2-7 16-13 32-13s30 6 33 13c2 8-8 12-33 12s-35-4-32-12zm-728-8c-4-7-3-16 3-22 14-14 65-1 59 15-5 16-53 21-62 7zm727-32c6-18 28-21 28-4 0 9-7 16-16 16s-14-5-12-12z"/>
    <path d="M2305 4140c-8-13 4-32 16-25 12 8 12 35 0 35-6 0-13-4-16-10zm42 3c-12-11-8-23 8-23 8 0 15 7 15 15 0 16-12 20-23 8zm683-23c0-5 8-14 18-19 16-10 16-10 0-11-16 0-18-10-18-76 0-49-6-88-16-110-28-60-37-41-33 74l4 107-301-3c-207-2-304 0-309 7-3 6-22 11-41 11h-34v-54c0-58-33-181-52-192-8-5-10 22-5 104l7 112h-356l-37-38c-48-49-57-83-57-209 0-57-3-103-6-103-4 0-22 9-40 21-32 19-34 24-34 74 0 54-15 79-31 54-5-8-9-25-9-38 0-20-2-22-15-11-13 10-19 10-35-5-11-10-20-24-20-31 0-19 104-109 155-134 106-52 259-50 370 5 54 26 133 95 171 150l21 30 60-61c186-189 449-185 628 8l66 72 45-52c57-66 112-103 191-132 131-48 305-11 413 86 46 41 110 133 110 157 0 13-48 53-55 45-1-2-8-14-15-27-15-30-30-12-30 38 0 41-35 90-85 121-34 21-39 21-295 14-238-6-260-6-260 10 0 12-9 16-35 16-19 0-35-4-35-10zm258-227c3-135 0-141-51-100-27 21-29 29-34 109-7 111-4 120 44 116l38-3 3-122zm140-25c1-82-1-148-5-148-5 0-25 5-45 11l-38 10v133c0 73 3 136 7 140s23 6 43 4l35-3 3-147zm142 13c0-135-1-139-22-145-59-15-58-19-58 139v145h80v-139zm125 107c3-18 5-64 3-102-3-62-6-71-31-90-40-29-47-13-47 117v107h35c31 0 35-3 40-32zm-895-122c0-141 0-144-22-150-59-15-58-17-58 125 0 72 5 139 10 150 7 12 21 19 40 19h30v-144zm134 42l7-103-33-27c-18-16-36-28-40-28s-8 59-8 130v130h67l7-102zm224 53c2-24 1-50-3-59-9-25-45 35-45 76 0 29 3 33 23 30 18-2 23-10 25-47zm-732 2c-3-21-6-54-6-73v-34l-20 20c-13 12-23 40-27 72l-6 52h33c32 0 33-1 26-37zm104-83c0-77-4-120-10-120s-22 11-35 25c-23 22-25 32-25 113 0 49 3 92 7 95 3 4 19 7 35 7h28v-120zm140-26v-146l-37 7c-21 3-42 10-46 15-5 4-6 67-2 139l8 131h77v-146zm-742-23l3-153-23 6c-13 3-31 6-40 6-16 0-18 14-18 143 0 79 3 147 7 151s21 6 38 4l30-3 3-154zm150 17l-3-142-42-12-43-13v309h91l-3-142zm112 40c0-91-2-104-22-125-42-45-48-33-48 95 0 65 3 122 7 125 3 4 19 7 35 7h28v-102zm1030 39c0-68 10-97 32-97 4 0 8 38 8 85 0 78-2 85-20 85s-20-7-20-73zm130-32c0-93 2-105 19-115 11-5 22-10 25-10s6 52 6 115v115h-50v-105zm157 108c-11-10-8-221 2-227 5-4 16-3 25 0 13 5 16 23 16 98 0 50-3 101-6 114-6 21-24 29-37 15zm133-83c0-89 9-110 30-71 11 21 13 103 4 139-4 12-13 22-20 22-11 0-14-20-14-90zm-900-51c0-109 2-120 18-117 15 3 17 18 20 121 3 112 2 117-18 117-19 0-20-6-20-121z"/>
    <path d="M2870 3895c0-93 1-95 20-85 18 9 20 21 20 95 0 78-2 85-20 85-19 0-20-7-20-95zm-390 6c0-78 12-109 31-80 19 30 5 159-17 159-11 0-14-19-14-79zm120-30c0-110 4-121 41-121 5 0 9 52 9 115v115h-50v-109zm-733 92c-4-3-7-55-7-114 0-108 4-119 41-119 5 0 9 54 9 120 0 110-2 120-18 120-10 0-22-3-25-7zm140 0c-9-8-9-180-1-210 6-23 39-32 46-13 2 5 2 59 0 120-3 97-5 110-21 110-10 0-21-3-24-7zm130 11c-10-11-8-172 2-178 21-13 32 25 29 100-3 71-13 96-31 78zm-391-56c-23-32-21-110 2-131 10-10 22-14 25-10 11 10 8 163-2 163-6 0-17-10-25-22zm2095-86c-27-42-92-109-155-160-18-14-21-48-6-57 6-4 27 5 46 20 26 20 33 32 29 46-7 20 18 28 30 9 6-10 80 35 117 72 25 25 23 70-6 97l-23 22-32-49zm-827-97c-164-167-442-171-622-10-28 25-53 45-57 45s-35-26-69-57c-184-172-445-179-625-17-37 33-56 44-70 39-37-11-175-199-293-399-60-99-200-372-240-466-152-356-260-785-299-1195-17-172-19-1109-3-1125 9-9 41-2 125 24 282 88 438 110 769 110 284 0 325-6 602-85 164-47 293-100 427-174 55-30 103-55 108-55s76 31 158 69c258 118 439 172 736 221 140 23 326 26 490 9 115-11 432-73 609-118 86-23 116-27 122-18 11 17 10 236-2 407-28 391-159 1290-194 1327-10 10-293 127-838 346-98 39-178 74-178 78s10 5 21 2c20-6 21-3 15 38-14 87-17 96-42 108-14 6-34 11-44 11-11 0-33 8-50 19l-30 18 76-5c69-4 76-3 72 13-2 13-29 27-93 47-49 17-108 38-130 48l-40 18 70-3c39-1 95-6 126-10 43-5 57-4 61 7s-2 133-27 515c-4 61-11 117-15 123-6 10-16 9-46-1-24-8-82-14-149-14-101 0-115 3-175 30-36 16-93 53-127 82s-66 52-70 51c-4 0-31-25-59-53zm-612-279l-27-10 25-7c14-3 95-4 180-1 92 2 169 0 190-6l35-10-30-2c-26-2-24-4 19-15 28-8 99-14 162-14 107 0 223-14 252-30 7-4-15-13-53-21-76-16-76-15-40-120 14-40 25-84 25-97 0-22-2-23-55-17l-55 7v-194l-30 23c-35 25-38 38-10 38 18 0 20 7 20 55 0 55-16 76-27 35-5-18-14-20-94-20-78 0-90-2-101-20-15-24-36-25-83-6-29 13-35 20-35 45 0 21-5 31-15 31-9 0-15-9-15-21 0-19-4-21-40-16-52 7-70 22-70 58 0 26-7 32-54 53-38 17-55 31-60 49-3 13-17 32-31 41s-25 25-25 36c0 18-27 40-49 40-6 0-12-17-12-37l-2-38-7 44c-3 24-13 47-21 51-46 27-54 38-41 59 16 28 16 31-10 31-17 0-19 3-9 9 7 5 60 8 117 7 78-1 97-3 76-10zm556-13c-10-2-28-2-40 0-13 2-5 4 17 4 22 1 32-1 23-4zm-873-358c45-31 61-48 68-74 4-19 4-38 0-42-5-5-39-11-76-14-54-4-65-2-61 9 3 9-4 20-17 27-16 8-24 9-27 1-2-6-9-9-15-6-15 5-283-158-280-171 1-4 28-18 60-30 67-24 184-87 202-108 19-24-15-41-90-45-78-5-196 10-314 39-74 18-86 19-160 6-71-12-146-9-161 6-3 3 2 17 12 32 21 32 15 38-58 59-32 9-58 20-58 25 0 12 122 41 199 47 56 5 87 16 206 75 77 39 187 87 245 107 85 31 104 41 102 56-8 42 4 48 86 45 70-4 82-7 137-44zm1127-385c169-11 387-47 482-80 77-26 137-62 180-106 63-65 60-128-9-229-25-36-45-69-45-73 0-18 50-54 101-73 30-12 87-23 127-26 70-6 75-4 170 40 126 58 218 80 317 75 72-3 79-6 106-35 15-18 31-49 34-70s13-66 21-100c21-90 18-107-17-137-39-33-80-50-183-78-69-19-109-22-266-22-102-1-215 3-252 8l-67 8-60-57c-98-93-123-173-81-254 51-101 276-160 535-141 105 8 150 20 157 42 3 7-2 33-9 58-8 25-11 55-8 67 8 36 69 65 144 71 65 4 69 3 105-28l37-33-2-106c-2-81 2-119 15-162 24-73 16-118-29-163-80-81-241-126-448-126-164 0-247 16-365 70-137 64-222 167-254 308-27 123 34 295 143 401 54 53 72 81 51 81-5 0-36 18-70 39-80 52-122 121-122 201 0 53 1 55 60 112 33 32 60 63 60 68 0 37-148 57-520 71-664 25-1208-5-1345-73-83-42-93-67-44-114 46-44 69-95 69-157 0-80-30-117-160-198-13-8-11-12 10-26 14-9 46-39 73-66 37-39 52-65 69-120 19-65 20-78 9-141-32-187-202-347-441-417-106-30-357-38-449-14-129 33-210 92-233 167-11 36-9 48 11 102 13 34 33 95 45 136s30 87 40 102c21 32 73 58 118 58 43 0 131-41 152-71 19-27 21-101 4-129-7-10-9-23-4-27 13-13 162-4 259 16 144 29 241 74 310 141 55 55 57 59 57 110 0 61-24 108-72 138-29 19-33 19-87 3-83-24-517-23-614 2-191 48-231 94-192 221 8 27 15 68 15 91 0 82 76 112 260 102 107-5 212-33 304-79 36-19 46-19 115-8 122 20 221 66 221 105 0 6-19 25-43 42-81 57-101 152-48 235 49 77 131 120 314 163 353 82 799 113 1239 85zm-379-638c5-25 13-31 69-46 34-10 93-33 131-53 66-35 68-35 88-17 19 18 21 17 71-34 49-48 51-52 39-78-11-24-8-35 23-98 20-39 41-98 49-131 12-54 16-60 41-63l27-3-3-77c-3-71-5-77-27-82-19-4-28-19-46-72-13-37-37-93-55-124-22-40-28-60-21-67 21-21 11-45-40-92-48-45-51-46-70-29-18 16-21 16-67-8-26-14-78-36-117-48-91-28-100-33-100-56 0-17-9-19-81-22l-81-3-6 30c-5 25-14 32-59 46-29 10-83 33-121 53-64 33-68 34-86 18-18-17-21-16-61 20-55 50-65 70-49 100 11 21 8 32-19 91-17 38-38 94-47 126-14 49-20 57-41 57-23 0-24 2-24 79 0 79 0 80 27 83 23 3 29 11 48 73 12 39 34 94 50 123 24 45 27 55 16 78-10 24-8 30 24 70 38 46 76 64 99 45 10-8 31-3 87 23 41 19 93 40 117 47 35 10 44 18 49 41 5 28 6 28 83 28s78 0 83-28zm-589 1346c-9-14-7-15 122-67 301-122 764-253 764-216 0 26-32 75-52 79-296 56-390 76-528 116-91 27-195 59-233 73-39 14-70 21-73 15zm831-48c-3-6 1-13 9-16 22-8 68 4 61 16-8 13-62 13-70 0zm-693-72c6-16 98-51 98-38 0 12-49 34-67 31-7-1-13 3-13 9 0 5-5 10-11 10s-9-6-7-12zm144-57c-5-8 201-101 223-101 15 0 22 16 15 34-4 10-13 14-24 11-9-3-23 1-30 10-9 11-16 12-25 5-9-8-14-6-19 6-4 10-13 14-26 11-10-3-25 1-31 9-7 8-20 12-30 9-11-4-19-2-19 4 0 13-27 15-34 2zm-41-41c44-20 65-24 65-12 0 10-60 32-86 31-12 0-5-7 21-19zm295-45c0-20 41-35 96-35 32 0 44 4 41 13-2 6-15 12-28 12s-30 4-37 8c-7 5-19 4-26-2-10-9-15-8-20 4-7 20-26 20-26 0zm-195-35c-7-12 2-30 16-30 12 0 12 27 0 35-5 3-12 1-16-5z"/>
    <path d="M2700 3113c0-10 63-43 80-43 23 0 7 17-27 30-21 8-41 16-45 18-5 2-8 0-8-5zm110-33c0-13 30-20 85-20 30 0 57 5 60 10 3 6-2 10-12 11-10 0-44 2-75 3-32 2-58 0-58-4zm-1030-66c-120-40-209-86-370-191-117-77-160-110-160-125 0-12 88-10 111 2 10 6 19 17 19 25 0 25 20 27 63 6 82-40 196-63 330-68 87-4 127-2 127 5 0 19-139 89-222 113-43 13-77 27-75 32 1 5 26 21 55 36 38 19 52 32 52 48 0 12 9 27 19 33 29 15 38 12 15-4-28-21-8-33 24-14 16 11 26 24 24 35-3 15-2 15 13 3 14-11 17-11 21 7 4 13 17 23 33 26 15 3 38 15 52 26 20 18 22 22 9 31-21 14-22 13-140-26zm-160-163c-24-19-40-19-40-1 0 9 22 17 50 19 9 0 6-7-10-18zm365 188c-10-14 22-36 72-48 96-25 98 0 3 35-77 28-67 26-75 13zm-763-223c-29-8-55-15-57-18-3-3 20-10 51-17 54-12 57-12 95 14 21 15 39 29 39 31 0 8-78 2-128-10zm1348-142c-210-15-536-71-691-119-107-34-180-81-204-132-37-76-13-147 68-197l46-28 32 26c17 15 49 36 70 47 146 74 587 101 1304 80 368-10 500-23 576-55 42-18 62-8 88 42 36 71 31 109-20 162-71 73-189 113-444 151-114 17-200 21-455 24-173 1-340 1-370-1zm450-138c0-46 16-69 31-45 5 8 9 29 9 47 0 17 5 32 10 32 6 0 10-10 10-22 1-75 34-92 44-23 4 25 11 45 17 45 5 0 9-20 9-45 0-45 0-45 35-45 24 0 35 5 35 15 0 8-9 15-20 15-27 0-25 12 4 40 18 16 30 20 43 15 17-8 17-8 1-12-20-5-23-18-8-28 6-3 10-17 10-31 0-22 4-24 45-24 25 0 45 5 45 10 0 6-11 10-25 10-27 0-48 29-36 49 5 7 27 15 50 18l41 6v-91l69-16c84-19 81-19 81-2 0 9-17 16-46 21-48 7-65 26-47 54 12 18 53 28 53 12 0-6-7-11-15-11-17 0-20-26-4-36 6-3 16-1 22 5 15 15 27 14 27-4 0-24 16-17 29 12 17 37 32 17 22-30-8-31-6-39 9-47 23-12 50-13 50-1 0 5-10 16-22 25-22 15-22 16-5 30 20 16 57 10 57-9 0-7 7-18 15-25 12-10 17-7 26 14 19 41 32 31 26-17-4-28-2-48 5-55 19-19-17-15-163 18-74 17-167 33-206 37-68 5-75 4-112-21-51-36-100-33-119 7l-13 27h-119c-96 0-122-3-135-16-12-12-13-19-4-30s8-14-6-14c-13 0-15 6-10 30l7 30h-172c-112 0-169 3-165 10 3 6 21 10 40 10 39 0 49 11 41 46-4 15-14 24-26 24-23 0-26-20-7-39 10-10 7-12-13-9-19 2-25 9-25 28 0 21 6 25 44 32 50 9 61 5 61-23 0-24 27-36 43-20 9 10 8 16-7 27-19 13-19 14 6 14 31 0 42-21 24-45-9-12-21-16-39-13-19 4-27 1-27-8 0-11 18-14 70-14 73 0 87 9 45 28-30 14-32 28-5 42 22 12 55 0 62-22 7-19 38-1 38 22 0 11 5 20 10 20 6 0 10-17 10-39 0-38 0-38 46-45 71-9 82-8 94 14 8 16 6 24-11 41-16 16-24 18-32 9-9-8-7-15 7-26 18-13 17-14-21-14h-41l15 31c14 28 19 31 49 26 19-3 36-1 39 4 14 22 25 6 25-35zm-915 14c-9-28 19-26 39 2 9 12 19 19 23 15 3-4-3-21-16-37-19-27-21-35-11-71 12-44 10-44 113-18 48 13 50 34 1 26-31-5-34-4-29 14 8 25-20 26-34 2-11-21-26-11-18 11 10 25 55 31 77 11s35-14 35 16c0 34 19 25 31-16 6-22 17-40 25-40 15 0 16 12 4 64-10 45 14 38 30-8 6-18 19-39 29-46 22-16 16-20-59-35-33-6-167-34-298-61-131-28-243-48-250-46-7 3 9 10 36 17 65 17 68 30 7 30-36 0-52 4-57 15-6 18 23 55 44 55 18 0 16-10-4-26-27-19-4-38 30-25 20 8 27 18 27 37 0 38 23 24 34-21l9-37 50 5c28 4 55 12 61 18 8 9 0 10-32 6-30-4-47-1-57 10-18 17-18 19-5 44 6 10 18 19 27 19 13 0 14-3 5-12-21-21-13-38 18-38 23 0 33 6 40 25 5 14 17 25 27 25s25 5 33 10c13 9 13 12-2 21-21 12-23 30-6 47 18 18 30 14 23-8zm1625 1c0-17-30-40-45-35-12 5-10 10 8 25 24 20 37 24 37 10zm-425-22c-4-6-1-15 6-20 21-13 31-11 27 8-4 20-24 28-33 12zm-155-94c0-10 10-15 29-15 16 0 34 7 41 15 11 13 7 15-29 15-30 0-41-4-41-15zm-1088 23c-15-15 3-48 28-48s30 10 19 38c-9 24-28 29-47 10zm1664-311c-20-24-39-58-42-75-9-43 27-114 80-157 101-83 231-110 491-102 197 6 273 21 359 71 53 31 67 57 54 101-4 16-13 59-19 95-14 89-19 93-82 65-106-49-219-69-387-69-179-1-259 17-348 79-29 19-56 35-61 35s-26-20-45-43zm234-97c13-7 21-7 25 0 8 13 42 13 50-1 4-5 1-24-6-41-12-29-13-30-20-9-5 11-13 21-18 21-12 0-24-37-16-50 4-6-5-10-21-10-22 0-24-2-14-14 6-8 10-25 8-38-2-18-9-23-33-23-37 0-48 31-13 38 21 3 21 5-9 16-18 7-33 17-33 23s7 8 15 4c20-7 19 4-2 19-15 11-15 15 6 44 23 32 48 39 81 21zm530-24c14-18 10-58-7-64-8-2-13 6-13 24v28l-20-22c-24-26-62-29-80-7-10 12-10 19-2 27 9 9 16 7 27-8 15-19 15-18 36 9 23 30 41 34 59 13zm-298-33c10-9 18-30 18-50 0-30 3-33 30-33 33 0 75 34 64 52-6 9-9 9-12 0-2-7-15-12-28-12-19 0-24 5-24 24 0 22 16 36 41 36 17 0 49-40 49-60 0-11-9-29-21-41-18-18-31-20-117-18-53 1-105 6-114 11-23 11-24 71-2 92 21 21 92 21 116-1zm293-65c22-2 31-9 33-25 2-13-1-23-7-23s-11 5-11 11c0 8-17 10-55 5-53-6-71 3-42 21 8 4 17 17 21 28 7 18 8 19 20 3 6-9 25-18 41-20zm-580 91c-8-12 14-31 30-26 6 2 10 10 10 18 0 17-31 24-40 8zm192-47c-23-25-21-32 8-32 13 0 28-8 34-17 8-14 12-15 25-4 9 7 16 21 16 30 0 41-54 55-83 23zm-2340 148c-31-33-117-62-234-79-143-22-448-9-608 24l-30 7-19-91c-10-50-15-103-12-117 12-48 149-93 343-113 102-10 365 1 438 20 113 28 210 84 246 143 21 35 25 105 8 139-15 30-81 97-94 97-5-1-23-14-38-30zm-40-119c4-15 15-21 47-23 39-3 41-4 44-39 3-33 0-38-29-48-18-6-35-11-39-11-8 0-35 67-46 113-7 31 15 39 23 8zm-737-47l5-49 19 43c19 41 38 53 51 31 10-15-4-139-15-139-5 0-10 19-12 43l-3 42-20-38c-22-43-39-44-43-1-6 56-13 61-33 22-17-33-39-51-39-32 0 10 43 109 53 122 18 23 32 6 37-44zm694 0c9-65 8-94-3-94-6 0-13 21-16 48-3 26-8 57-11 70-3 14 0 22 9 22s17-17 21-46zm-61 14c3-13 9-44 12-69 8-55-8-74-24-28-14 42-44 36-51-10-4-28-7-31-16-20-17 20-29 139-15 139 6 0 14-13 18-30 4-23 11-30 29-30 21 0 24 5 24 35 0 39 15 47 23 13zm-428-13c16-15 25-36 25-55 0-35-38-80-68-80-37 0-57 26-57 75 0 37 5 51 24 66 31 25 47 24 76-6zm79-15c7-37 20-38 42-5 9 14 23 25 30 25 18 0 17-10-1-34-11-14-12-24-4-38 6-11 8-31 5-44-6-21-12-24-51-24h-45v75c0 76 13 100 24 45zm204 18c22-22 14-57-17-73-45-23-51-39-12-32 27 6 32 4 29-11-2-12-13-17-38-17-32 0-35 3-38 32-3 27 2 34 27 48 17 8 31 20 31 25 0 18-22 22-39 6-21-19-31-20-31-3 0 21 22 37 50 37 14 0 31-5 38-12zm-348-28c-18-34-9-74 19-78 27-4 41 12 41 49 0 46-40 66-60 29zm145-60c-4-7-3-16 3-22 14-14 45-2 40 15-6 16-34 21-43 7zm568-291c-7-36-22-74-38-95-50-66-162-123-320-165-63-17-109-21-215-22-149 0-234 16-307 59-23 13-44 24-46 24-3 0-8-14-12-31s-20-59-36-94c-34-76-31-93 29-147 78-70 210-103 382-95 211 10 382 78 506 202 90 90 117 145 122 249 4 66 1 86-19 127-12 27-25 49-28 49-4 0-12-27-18-61zm-125-241c15-15 15-53 0-78-16-26 0-40 18-16 11 16 17 17 26 8 10-10 8-17-9-33-30-31-73-19-73 19 0 15 7 36 15 46 16 21 11 36-10 36-8 0-17-11-21-25-9-34-24-31-24 5 0 42 50 66 78 38zm-93-98c26-51 33-86 15-75-14 9-60 101-60 120 0 26 19 7 45-45zm-625-2v-53l25 38c38 55 49 48 42-28-8-84-20-104-27-45l-5 45-18-32c-25-48-47-43-47 9v42l-30-34c-18-22-29-29-30-20 0 20 68 130 81 130 5 0 9-24 9-52zm486 5c-19-64-18-74 5-99 19-20 20-24 5-24-9 0-28 7-41 16-24 16-25 16-25-10 0-32-16-34-23-3-11 42-20 127-14 127 4 0 14-14 22-30 18-35 31-32 40 10 4 17 13 30 21 30 10 0 13-6 10-17zm-282-19c20-20 21-83 0-112-32-47-104-15-104 46 0 26 17 63 34 74 19 13 54 9 70-8zm76-17c0-39 13-40 41-5 31 37 46 34 28-6-10-20-10-29-1-38 15-15 15-51 0-66-7-7-29-12-50-12h-38v75c0 43 4 75 10 75s10-10 10-23z"/>
    <path d="M1135 1204c-24-25-16-78 12-82 33-5 50 41 28 74-18 28-19 29-40 8zm145-79c0-8 9-15 20-15s20 7 20 15-9 15-20 15-20-7-20-15zm3273 426c-41-11-63-28-63-52s32-32 96-24c50 6 54 5 54-14 0-26 16-27 30-2 34 64-30 113-117 92zm-3570-40c-50-23-69-52-52-82l11-21 12 23c6 14 28 30 51 38 35 12 45 11 77-2 37-16 38-16 32-61-7-51 5-60 30-24 22 31 20 60-6 93-21 26-73 55-100 55-7 0-32-9-55-19zm2702 9c-14-22-16-110-5-165 45-219 236-339 561-352 235-10 419 52 475 160 14 25 13 36-5 107-12 44-21 93-21 110 0 34-6 36-36 16-73-52-362-92-551-76-181 14-329 86-379 182-15 29-28 35-39 18zm221-267c1-31-3-43-13-43-8 0-13-6-11-12 7-21 67-22 89-2 24 22 26 64 2 64-15 0-15-2-4-9 12-8 13-12 1-26s-15-14-28-2c-9 9-11 23-7 36 8 28 50 28 65 1 21-39-15-100-58-100-37 0-132 30-132 42 0 5 7 8 15 4 8-3 15-1 15 3 0 5-7 12-16 15-15 6-15 8-2 24 8 9 18 25 21 35 5 13 15 17 34 15 25-3 28-7 29-45zm724-13c20 0 30-17 22-37-5-16-34-17-50-1-13 13-16 80-4 92 4 4 8-6 10-23 2-22 8-31 22-31zm-80 25c13-16 30-80 33-125 2-26-27-40-45-22-16 16 1 36 18 21 11-9 14-8 14 6 0 16-7 17-60 11-69-8-78-2-20 14 42 11 64 38 54 64-7 19-34 21-34 3s-59-42-72-29c-17 17-4 47 22 50 14 2 29 8 35 13 14 14 41 11 55-6zm-446-12c4-5 24-9 44-10 117-5 117-5 120-41 4-36-19-72-45-72-10 0-7 10 11 31 22 26 24 34 14 46-11 13-16 11-41-17-21-24-27-38-23-58 3-15 2-34-4-42-8-13-10-13-10 2 0 10-9 22-20 28-21 11-21 12 5 42 28 33 28 51 2 56-11 2-23-9-34-33-17-35-51-54-72-40-6 3-11 22-11 42 0 51 39 90 64 66zm288-57c6-28 5-42-4-49-10-7-10-10 0-14 14-6 16-43 2-43-5 0-10 5-10 10 0 6-11 10-24 10-28 0-43 15-24 24 10 5 10 7 1 12-14 6-18 76-6 88 4 4 18 6 32 4 20-2 27-11 33-42zm-531 70c-9-10-9-16-1-21 17-10 37 12 24 25-8 8-15 6-23-4zm211-48c-7-7-12-20-12-31 0-24 33-19 38 7 5 24-11 39-26 24zm275-5c-13-12-7-33 8-33 8 0 15 9 15 20 0 20-11 26-23 13zm-3335 205c-18-18-15-35 10-52 37-26 48-20 48 24 0 35-3 40-23 40-13 0-28-5-35-12zm3487-10c7-19 15-22 42-20 42 5 72 20 64 33-4 5-31 9-60 9-52 0-54-1-46-22zm-1826 542c-80-12-176-62-244-126-103-99-149-206-149-348 0-143 45-254 139-346 150-146 356-180 546-89 336 160 371 621 63 831-105 71-229 98-355 78zm92-80c4-6 1-18-6-26-10-12-12-97-10-376 2-325 3-363 19-374 13-10 14-15 4-27-7-8-20-13-30-12-9 2-33 7-53 10-43 6-62 43-28 52 18 5 19 18 19 359 0 310-2 353-15 348-10-4-15 0-15 15 0 13 9 25 23 31 31 12 84 12 92 0zm133-23c9-7 12-89 12-349 0-298 2-339 15-334 8 3 22 9 30 12 11 5 15-1 15-24 0-26-6-32-59-56-71-32-111-34-111-7 0 10 10 25 23 33l22 15 3 366c4 335 5 365 20 360 10-3 23-10 30-16zm-299-434c1-178-3-323-7-323-5 0-16 6-25 13-14 10-17 36-18 175-2 239-8 254-43 102l-35-154c-10-45-25-42-59 12-50 77-64 127-65 227-1 102 21 175 76 247 37 48 52 56 61 31 5-12-8-47-35-101-34-65-44-96-47-146-4-65 13-176 28-176 8 0 69 244 105 420 10 48 25 91 34 98 14 12 17 7 22-45 4-32 7-203 8-380zm409 385c7-7 12-45 12-97 0-48 3-96 6-109 6-21 10-19 47 34 37 52 41 55 54 38 21-28 16-44-37-124l-49-74 26-46 45-75c22-36 23-59 4-74-12-10-20-5-42 28-15 23-31 41-35 41-5 0-9-38-9-83 0-70-3-87-19-101-18-17-19-14-25 116l-9 336c-2 201 1 220 31 190zm932 1982c0-21-71-557-79-600l-21-103c-6-33-8-66-5-75 6-16 8-15 20 1 11 16 18 16 61 6 62-14 494-156 553-181 24-10 46-16 49-13 18 18-248 562-347 710-62 93-206 265-222 265-5 0-9-4-9-10zm-83-85c-20-14-37-29-37-33 0-5 15-23 34-41l35-34 6 39c3 22 9 51 11 67 7 34-1 34-49 2zm-110-80c-20-14-37-29-37-33 0-14 76-82 90-82 8 0 28 12 44 26l29 26-88 88-38-25zm-67-123c0-40 3-72 8-72 7 0 82 48 82 53 0 2-20 23-45 47l-45 44v-72zm159-1l-24-20 23-23c19-20 24-21 32-8 12 19 13 70 1 70-5 0-19-9-32-19zm-91-64c-16-13-28-27-28-32s14-24 32-42l31-32 78 62-32 33c-39 40-45 41-81 11zm-58-110c0-31 4-57 9-57 6 0 22 10 36 23l26 22-35 34-36 35v-57zm139 4c-19-16-22-23-13-37 18-30 31-26 38 12 9 45 5 49-25 25zm-82-64l-28-22 30-29c29-28 31-28 56-12 32 21 31 26-3 59l-27 26-28-22zm-47-90c0-52 8-57 35-27 18 20 18 21-8 48l-27 27v-48zm111 4c-8-5-11-16-8-25 10-25 27-19 27 9s0 28-19 16zm-79-64l-21-23 24-29 23-30 31 29 31 30-22 23c-27 29-39 29-66 0zm-32-76c0-22 15-35 30-26 7 4 7 13 0 26-14 25-30 25-30 0zm87-8c-12-11-8-23 8-23 8 0 15 7 15 15 0 16-12 20-23 8zm-217-47c0-8 109-40 115-34 3 3 3 13-1 22-5 12-19 16-60 16-30 0-54-2-54-4zm161-5c-10-6-10-13-3-28 20-37 37-45 55-25 16 17 15 20-3 40-23 24-29 26-49 13zm103 2c-13-10-27-77-18-86 4-4 12-3 18 2 8 6 79-13 201-54 265-88 539-174 544-170 2 3-6 29-19 59-26 65 0 52-355 169-220 72-344 99-371 80zm-97-119c-9-10 12-34 30-34 19 0 12 34-8 38-8 1-18 0-22-4zm67-8c-12-31 5-44 93-74l721-242c6 0 8 9 5 20-6 22-35 40-98 60-22 7-182 63-355 125-388 139-359 130-366 111zm-84-55c0-12 5-21 10-21 6 0 10 6 10 14s-4 18-10 21c-5 3-10-3-10-14zm71-24c-5-12-12-41-16-64-7-42-6-42 32-58 21-9 226-92 456-185 393-159 417-167 417-145 0 28-29 157-39 173-4 7-158 64-342 128l-417 144-83 30-8-23z"/>
  </g>
</svg>